<?xml version="1.0" standalone="no"?>
<!DOCTYPE svg PUBLIC "-//W3C//DTD SVG 20010904//EN"
 "http://www.w3.org/TR/2001/REC-SVG-20010904/DTD/svg10.dtd">
<svg version="1.0" xmlns="http://www.w3.org/2000/svg"
 width="1280.000000pt" height="1096.000000pt" viewBox="0 0 1280.000000 1096.000000"
 preserveAspectRatio="xMidYMid meet">
<metadata>
Created by potrace 1.15, written by Peter Selinger 2001-2017
</metadata>
<g transform="translate(0.000000,1096.000000) scale(0.100000,-0.100000)"
fill="#000000" stroke="none">
<path d="M4860 10901 c-290 -116 -579 -277 -1175 -653 -126 -79 -279 -173
-340 -208 -159 -92 -348 -220 -610 -414 -420 -310 -632 -442 -836 -516 -328
-120 -723 -377 -1110 -721 -146 -130 -779 -732 -779 -740 0 -4 12 -9 28 -12
24 -5 41 9 152 116 640 623 1191 1012 1810 1277 412 176 697 354 1245 775 668
513 877 655 1177 800 125 60 338 141 338 129 0 -3 -27 -36 -60 -72 -91 -99
-208 -258 -409 -555 -276 -408 -373 -532 -500 -631 -386 -304 -672 -741 -906
-1381 -162 -444 -230 -716 -336 -1341 l-32 -190 -72 -48 c-93 -60 -220 -166
-415 -346 -220 -202 -300 -262 -385 -290 -108 -35 -280 -123 -384 -198 -110
-78 -283 -241 -386 -362 -129 -153 -329 -432 -318 -444 12 -12 22 -5 44 32 51
83 166 230 248 315 220 228 485 388 841 506 51 17 94 44 195 123 284 223 578
448 581 445 5 -4 -57 -332 -91 -480 -33 -149 -41 -172 -113 -342 -83 -198
-167 -421 -355 -955 -258 -728 -388 -1059 -513 -1299 -41 -79 -62 -131 -59
-142 12 -37 7 -44 163 221 147 250 342 656 432 900 47 125 92 255 190 545 142
420 218 633 270 755 54 128 48 98 226 985 218 1083 255 1231 385 1558 222 558
531 992 939 1321 133 107 253 257 515 646 87 129 190 278 228 330 69 93 366
400 386 400 6 0 82 -28 168 -62 201 -79 487 -223 823 -415 146 -83 342 -191
435 -240 94 -50 222 -120 285 -157 63 -37 214 -117 335 -178 567 -286 783
-445 962 -704 142 -205 297 -356 728 -709 356 -292 415 -346 483 -446 125
-183 255 -345 428 -531 136 -147 277 -278 542 -504 337 -289 531 -489 644
-664 63 -98 61 -81 -3 34 -192 342 -377 554 -774 888 -428 359 -635 571 -800
817 -30 45 -87 104 -180 185 -384 335 -624 589 -828 872 l-37 52 72 43 c194
115 334 221 543 409 144 131 362 310 377 310 4 0 8 -12 8 -27 0 -39 29 -150
55 -210 55 -125 174 -266 364 -433 123 -108 186 -179 343 -386 121 -159 272
-423 319 -556 7 -21 17 -38 22 -38 29 0 -45 216 -143 416 -87 176 -274 469
-336 525 -192 173 -269 265 -346 415 -48 94 -104 241 -95 250 2 3 27 -8 54
-25 157 -97 384 -186 813 -321 611 -191 800 -267 1042 -415 40 -25 50 -38 69
-89 57 -156 236 -477 431 -770 145 -218 370 -516 390 -516 28 0 30 17 5 47
-176 212 -538 909 -674 1298 -28 82 -54 108 -172 178 -171 102 -361 173 -785
293 -166 48 -314 94 -331 104 -16 9 -249 128 -517 264 l-486 246 -74 -58
c-118 -94 -193 -168 -333 -327 -190 -217 -379 -389 -564 -512 -96 -65 -82 -69
-151 47 -52 88 -103 144 -212 233 -169 137 -338 230 -726 401 -284 125 -425
198 -682 351 -281 168 -641 373 -879 500 -169 90 -659 335 -670 335 -3 0 -71
-26 -151 -59z"/>
<path d="M6576 8742 c253 -135 416 -360 707 -977 112 -237 169 -350 217 -432
l30 -52 -63 5 c-56 5 -172 -19 -1142 -236 -594 -133 -1260 -282 -1480 -332
-372 -84 -408 -90 -510 -90 -340 -1 -551 178 -616 520 -18 95 -33 91 -25 -6 8
-96 46 -236 84 -306 15 -28 55 -80 90 -117 103 -110 241 -170 438 -191 l112
-12 6 -121 c7 -127 26 -2009 26 -2501 l0 -289 -53 -70 c-69 -91 -180 -179
-373 -295 -273 -164 -473 -317 -562 -432 -52 -66 -111 -173 -112 -200 0 -34
19 -18 44 35 32 65 84 129 167 201 114 100 350 262 519 356 91 51 192 111 225
135 76 54 156 139 185 196 12 24 24 45 25 47 2 2 22 -8 45 -23 l42 -27 367 77
c201 42 497 112 656 155 160 44 330 89 379 100 83 20 89 20 107 4 10 -9 16
-20 14 -24 -3 -4 -45 -15 -95 -25 -50 -10 -89 -21 -88 -26 2 -5 53 -67 115
-138 l112 -129 78 19 c43 10 83 19 89 19 13 0 89 -108 82 -116 -3 -3 -41 -14
-84 -26 -44 -11 -81 -22 -83 -24 -2 -2 38 -56 90 -121 51 -65 94 -120 96 -122
1 -2 37 6 80 18 74 20 79 20 91 3 37 -49 37 -48 -61 -72 -50 -13 -95 -25 -100
-27 -6 -3 49 -89 148 -231 2 -1 36 6 76 18 40 11 79 20 85 20 11 0 38 -59 31
-67 -2 -1 -30 -8 -63 -14 -32 -7 -62 -15 -66 -18 -7 -6 29 -289 37 -299 2 -2
42 4 90 14 74 15 88 15 96 3 17 -28 10 -182 -12 -247 -45 -134 -184 -369 -285
-481 l-48 -53 -32 63 -32 64 -163 -4 c-90 -2 -183 -6 -206 -10 l-42 -6 40 -94
c21 -52 36 -97 33 -100 -3 -3 -55 -18 -115 -32 l-110 -26 -40 79 -40 79 -152
-6 c-152 -6 -217 -12 -217 -20 0 -3 18 -50 40 -106 23 -56 39 -103 37 -105 -4
-5 -265 -64 -281 -64 -6 0 -31 39 -54 86 l-43 86 -47 -6 c-26 -3 -109 -6 -184
-7 -76 0 -138 -5 -138 -9 0 -5 20 -57 45 -116 25 -59 42 -111 38 -114 -5 -4
-88 -22 -185 -40 l-178 -34 0 -43 c0 -24 3 -43 7 -43 41 0 1048 227 1683 379
272 65 497 117 498 115 5 -3 -90 -142 -125 -181 -27 -32 -40 -36 -302 -98
-644 -154 -1098 -253 -1461 -320 -261 -47 -240 -41 -240 -70 0 -14 3 -25 8
-25 4 0 98 19 209 42 112 23 205 39 209 36 10 -11 264 -631 260 -635 -2 -3
-108 -23 -234 -46 l-230 -42 -6 -29 c-4 -16 -5 -31 -3 -32 2 -2 102 14 223 36
120 21 336 59 479 85 143 25 361 64 485 86 392 70 767 136 1035 184 143 26
276 49 295 52 34 6 33 4 -40 -57 -121 -100 -132 -106 -270 -129 -69 -12 -298
-53 -510 -91 -212 -38 -677 -121 -1035 -186 -357 -64 -653 -121 -657 -128 -12
-18 -9 -46 4 -46 7 0 127 20 268 44 140 25 266 46 279 48 22 3 28 -6 62 -87
33 -79 41 -90 61 -87 13 1 123 23 245 49 l223 46 -45 84 c-29 55 -40 85 -32
88 11 3 138 25 148 25 3 0 16 -29 29 -65 15 -41 30 -65 40 -65 18 0 463 92
469 97 3 2 -7 28 -22 59 -15 30 -27 56 -27 58 0 6 150 27 158 22 5 -3 22 -39
38 -80 24 -64 31 -75 49 -70 11 2 119 25 239 49 121 25 221 47 223 49 2 2 -10
34 -27 71 -17 37 -29 70 -26 72 2 2 104 21 227 43 123 22 233 42 245 44 18 5
25 -4 48 -64 24 -61 31 -69 49 -65 12 3 121 26 242 51 121 25 221 47 223 49 2
2 -9 27 -23 55 -15 29 -23 56 -18 60 11 10 712 132 722 126 5 -3 14 -26 21
-51 7 -25 16 -48 20 -50 5 -3 116 11 249 30 132 19 243 35 246 35 3 0 -8 27
-25 60 -22 44 -27 62 -18 65 13 4 236 45 247 45 3 0 17 -27 31 -60 14 -33 30
-60 37 -60 13 0 449 88 471 95 9 3 6 18 -13 56 -15 28 -25 52 -23 54 10 9 171
35 177 28 4 -4 20 -39 35 -76 22 -51 32 -66 45 -63 9 3 117 26 241 51 124 26
226 48 228 50 2 2 -11 31 -28 65 -17 34 -30 63 -28 64 5 5 121 26 138 26 12 0
24 -18 38 -52 11 -30 26 -53 33 -52 20 2 473 96 477 99 2 2 -6 22 -18 45 -12
23 -19 44 -17 46 2 3 38 10 79 18 l75 13 31 -71 c17 -39 35 -70 39 -70 41 8
479 98 481 100 2 1 -10 29 -27 63 -17 33 -31 62 -31 64 0 5 151 30 154 25 2
-1 14 -29 27 -62 13 -32 28 -60 34 -62 10 -4 424 92 432 100 2 2 -6 23 -17 47
-27 60 -26 64 20 78 34 10 39 15 31 30 -24 44 -32 45 -201 14 -88 -16 -160
-26 -160 -23 0 3 12 13 28 22 15 10 50 39 78 66 42 41 59 50 100 56 80 12 83
13 75 44 -6 21 -13 27 -34 25 -32 -2 -33 3 -6 42 102 150 178 421 165 587 -12
144 -65 269 -152 358 l-44 46 14 95 c8 53 19 187 25 300 22 407 32 565 37 599
l6 35 -460 290 -459 290 -42 86 c-53 111 -109 197 -161 249 -117 117 -345 218
-576 255 l-91 15 -139 -49 c-476 -168 -687 -293 -839 -499 -53 -73 -65 -83
-115 -101 -30 -11 -289 -102 -575 -202 -286 -100 -524 -185 -529 -190 -6 -6
-3 -9 7 -9 9 0 17 -3 17 -7 0 -5 7 -48 15 -98 21 -132 73 -566 81 -673 7 -89
6 -95 -24 -160 -17 -37 -43 -107 -58 -157 -23 -77 -27 -109 -28 -225 -1 -148
8 -197 56 -294 30 -60 28 -75 -12 -76 -8 0 -24 -3 -35 -6 -17 -4 -23 2 -33 30
-11 29 -18 36 -40 36 -38 0 -334 -29 -338 -33 -2 -2 6 -27 17 -57 16 -43 18
-55 7 -61 -23 -15 -37 -10 -42 14 -2 12 -11 61 -20 108 -22 123 -68 256 -133
389 -32 63 -58 117 -60 121 -2 3 38 13 89 24 51 10 95 19 97 21 2 2 -112 167
-175 252 -1 2 -37 -3 -79 -12 -43 -9 -85 -16 -95 -16 -19 0 -103 97 -95 109 2
4 38 16 79 26 42 11 76 23 76 28 0 11 -116 204 -134 224 -9 10 -36 6 -125 -18
l-114 -31 -34 35 -35 34 69 18 c37 10 70 20 72 21 4 3 -54 70 -166 192 l-58
63 -84 -25 -84 -26 -38 31 c-22 17 -39 34 -39 38 0 4 29 13 65 20 36 7 65 17
63 21 -8 22 -204 250 -215 250 -7 0 -56 -10 -109 -21 -86 -19 -98 -20 -111 -6
-14 13 -10 16 36 26 29 6 61 11 71 11 11 0 20 6 20 13 0 7 148 58 381 132 209
66 385 123 390 126 7 4 7 401 0 1125 -9 1089 -10 1128 -37 1459 l-27 340 -52
80 c-89 138 -180 296 -321 557 -75 139 -170 304 -211 366 -89 134 -228 284
-341 365 -77 55 -263 157 -286 157 -6 0 21 -17 60 -38z m988 -1512 c6 -6 6
-10 1 -10 -6 0 -260 -58 -565 -129 -305 -71 -811 -189 -1125 -261 -313 -73
-727 -170 -920 -215 l-350 -82 -23 21 c-12 11 -19 23 -15 26 5 4 211 55 458
113 1157 274 2225 528 2275 542 62 16 246 13 264 -5z m128 -52 c1 -2 4 -130 7
-286 5 -246 4 -283 -9 -287 -8 -2 -267 -63 -575 -135 -308 -72 -731 -171 -940
-220 -209 -49 -641 -150 -959 -224 -319 -75 -581 -134 -583 -132 -5 5 -25 557
-21 560 2 1 476 113 1053 249 578 136 1266 299 1530 362 494 117 494 117 497
113z m-3149 -952 l5 -268 -24 23 c-23 24 -24 28 -30 294 l-6 270 25 -25 25
-25 5 -269z m3171 -168 c4 -249 11 -732 16 -1073 5 -340 6 -622 2 -626 -9 -8
-454 -149 -470 -149 -9 0 -12 57 -12 238 0 130 -5 623 -11 1095 -6 472 -8 861
-6 864 7 6 425 101 453 102 21 1 21 0 28 -451z m-530 90 c6 -259 24 -1901 21
-1906 -1 -1 -27 42 -58 97 l-56 99 7 974 7 973 30 6 c17 4 33 7 36 8 4 0 9
-113 13 -251z m-134 -719 c0 -818 -2 -940 -15 -937 -8 2 -345 188 -749 413
l-736 410 0 150 c0 83 3 247 7 366 l6 216 196 42 c108 23 439 96 736 161 297
65 543 119 548 119 4 1 7 -422 7 -940z m-1558 389 c-1 -117 -3 -264 -5 -327
l-2 -115 -72 110 -73 110 0 201 0 202 58 11 c31 6 62 13 67 15 6 2 15 4 20 4
6 1 9 -74 7 -211z m-208 0 c5 -135 14 -1171 17 -1928 l1 -184 -304 -62 c-166
-34 -305 -60 -308 -57 -3 3 -8 163 -12 356 -16 849 -28 1536 -31 1712 l-2 190
300 66 c165 37 307 67 316 68 15 1 18 -19 23 -161z m-684 -1100 l0 -1118 -50
25 -50 25 0 309 c0 169 3 680 7 1135 l6 827 44 -43 43 -42 0 -1118z m865 602
c20 -31 126 -92 799 -460 l776 -424 62 -105 c34 -58 68 -116 75 -127 14 -21
11 -23 -90 -57 l-105 -35 -87 88 -87 87 -90 -22 -89 -23 -27 23 -26 22 52 12
c29 6 60 11 67 11 8 0 15 4 15 8 0 14 -229 192 -247 192 -9 0 -42 -5 -74 -12
-52 -11 -59 -10 -83 9 l-27 21 58 13 c32 7 64 15 71 19 8 4 -26 42 -98 109
l-111 104 -79 -22 c-71 -19 -110 -20 -110 -2 0 4 25 15 56 25 31 10 52 21 48
25 -5 5 -52 42 -104 83 l-95 74 -59 -12 c-59 -12 -60 -12 -98 19 -43 35 -46
43 -18 50 11 3 20 9 20 14 -1 4 -27 37 -58 72 l-58 63 -42 -13 c-41 -12 -44
-11 -70 14 -25 25 -25 27 -8 40 17 13 16 16 -20 45 -21 18 -50 32 -63 32 -15
0 -40 14 -63 37 -38 37 -38 38 -38 118 l0 80 51 -80 c29 -44 62 -96 74 -115z
m-35 -96 c131 -134 376 -350 710 -628 926 -770 1017 -848 1235 -1056 442 -424
658 -724 778 -1082 24 -72 60 -228 70 -309 l5 -36 -71 -17 c-40 -9 -75 -16
-79 -16 -5 0 -8 18 -8 40 0 67 -28 230 -55 325 -147 509 -518 941 -1563 1823
-463 390 -684 581 -840 726 -216 198 -263 248 -266 280 -2 14 0 26 3 26 4 0
40 -34 81 -76z m50 16 c8 -5 11 -12 7 -16 -4 -4 -15 0 -24 9 -18 18 -8 23 17
7z m-115 -70 c0 -7 -5 -15 -12 -17 -7 -3 -11 4 -10 16 1 23 22 23 22 1z m58
-48 l27 -29 -35 -10 c-34 -11 -36 -10 -51 19 -13 25 -14 32 -2 39 21 14 33 11
61 -19z m299 -84 c-8 -19 -43 -5 -87 34 l-47 41 24 13 c21 12 26 10 68 -34 25
-26 44 -50 42 -54z m-209 -4 c21 -20 37 -37 35 -38 -6 -4 -111 -26 -113 -24 0
2 -9 15 -18 30 -22 36 -22 37 16 53 42 18 36 20 80 -21z m-134 -61 c38 -76
180 -288 256 -383 33 -41 164 -199 291 -350 678 -808 928 -1164 1057 -1510 38
-103 67 -235 67 -309 0 -26 -7 -72 -16 -102 -21 -70 -145 -328 -218 -451 -53
-91 -60 -98 -99 -108 -23 -6 -51 -14 -61 -17 -18 -5 -18 -3 3 23 156 202 272
443 286 599 17 183 -66 459 -214 710 -138 234 -267 408 -649 880 -402 496
-523 656 -636 843 -72 120 -97 169 -103 204 -6 42 4 34 36 -29z m240 -37 c29
-30 31 -35 15 -39 -36 -11 -136 -29 -138 -25 -18 26 -36 58 -36 62 0 6 88 34
111 35 8 1 30 -14 48 -33z m369 -72 c78 -59 79 -65 17 -78 -26 -5 -39 2 -103
55 -77 64 -80 79 -18 79 20 0 53 -18 104 -56z m-615 17 c21 -36 21 -41 2 -41
-8 0 -15 -4 -15 -8 0 -14 81 -226 90 -236 5 -4 25 -3 45 4 30 10 39 10 46 -1
11 -19 3 -27 -36 -35 -20 -3 -37 -9 -40 -13 -3 -6 88 -145 114 -174 4 -4 31
-2 60 4 47 10 54 9 66 -8 8 -10 15 -21 15 -24 0 -4 -32 -13 -70 -20 l-71 -14
93 -98 93 -98 59 12 c59 12 59 12 83 -15 13 -15 21 -31 19 -35 -3 -4 -41 -16
-86 -26 -44 -10 -80 -21 -80 -24 0 -4 36 -38 80 -76 43 -39 79 -72 80 -75 0
-4 -439 -129 -547 -157 l-23 -5 -2 596 c-2 328 -1 596 2 596 3 0 13 -13 23
-29z m390 -75 l78 -73 -102 -26 c-56 -15 -103 -26 -105 -25 -16 18 -111 154
-108 157 3 3 138 38 154 39 3 1 40 -32 83 -72z m5372 19 c165 -53 263 -99 342
-159 114 -87 215 -218 294 -383 51 -109 92 -151 282 -296 87 -65 156 -121 154
-123 -2 -2 -300 -91 -663 -198 -362 -107 -843 -249 -1068 -315 -225 -67 -415
-121 -422 -121 -6 0 1 14 17 31 39 42 89 148 133 284 41 123 114 466 127 592
11 109 37 170 144 338 104 162 166 227 306 322 l101 68 30 -35 c38 -45 73
-115 82 -161 3 -20 2 -66 -3 -103 -11 -77 -1 -130 50 -251 23 -54 37 -75 50
-75 17 0 17 3 3 43 -47 131 -63 213 -55 268 15 95 -10 199 -71 287 l-30 44 33
-7 c19 -4 93 -27 164 -50z m-345 32 c0 -2 -60 -39 -133 -81 -174 -101 -215
-137 -260 -228 -46 -93 -60 -137 -112 -338 -24 -91 -59 -217 -79 -280 -34
-109 -89 -322 -136 -530 -12 -52 -29 -107 -36 -122 l-14 -28 -396 297 -395
296 58 22 c95 36 177 81 382 209 136 84 199 130 210 150 9 16 42 68 73 115
154 232 386 390 723 490 105 31 115 33 115 28z m-5347 -103 c16 -27 38 -63 48
-80 19 -31 19 -32 -2 -37 -17 -5 -25 4 -51 61 -46 103 -50 114 -36 110 7 -3
25 -27 41 -54z m827 -90 c44 -42 80 -80 80 -83 0 -4 -22 -12 -50 -17 l-49 -10
-90 70 c-50 39 -90 74 -91 77 0 6 86 36 108 38 7 1 48 -33 92 -75z m-391 32
c13 -15 14 -15 -129 -56 -49 -15 -76 -18 -78 -11 -2 6 -4 13 -5 17 -2 6 165
62 189 63 6 1 17 -5 23 -13z m125 -107 c39 -34 72 -65 74 -69 1 -4 -59 -19
-134 -35 -119 -24 -139 -26 -148 -13 -6 8 -29 35 -50 61 -21 26 -37 49 -35 51
9 8 185 64 203 65 10 1 50 -27 90 -60z m-383 -104 c23 -31 40 -57 38 -59 -2
-2 -16 -6 -31 -10 -23 -5 -32 1 -67 45 -46 58 -48 66 -23 72 36 10 42 6 83
-48z m524 -15 c10 -11 16 -22 14 -23 -2 -2 -67 -17 -144 -35 l-140 -31 -17 22
c-20 26 -29 22 121 57 143 34 144 34 166 10z m404 -57 c89 -71 89 -72 15 -86
-27 -5 -41 2 -113 61 l-83 67 44 11 c23 7 45 12 48 13 3 0 43 -29 89 -66z
m-199 -123 c0 -3 -77 -21 -170 -40 l-171 -35 -24 30 c-14 17 -39 46 -55 67
l-30 36 92 21 c51 12 120 27 153 34 l60 14 72 -61 c40 -33 73 -63 73 -66z
m-552 -37 l51 -68 -37 -8 c-36 -8 -38 -7 -95 55 l-58 63 38 12 c21 6 41 12 44
12 4 1 30 -29 57 -66z m1066 -78 c36 -43 66 -82 66 -86 0 -7 -51 -19 -80 -19
-16 0 -181 131 -188 148 -2 8 104 41 124 38 7 0 42 -37 78 -81z m5331 -140
c187 -109 346 -203 353 -210 10 -9 -277 -101 -1250 -403 -695 -216 -1269 -392
-1276 -392 -14 0 -1162 859 -1162 869 0 8 942 353 947 347 3 -2 -40 -30 -94
-62 -240 -141 -399 -223 -512 -265 -66 -24 -120 -47 -118 -51 1 -5 217 -165
480 -358 l477 -349 1143 340 c628 187 1146 341 1151 342 4 2 -16 18 -47 37
-130 82 -356 236 -400 273 -61 51 -105 127 -54 95 12 -8 175 -104 362 -213z
m-5766 191 l23 -25 -38 -9 c-22 -6 -102 -25 -178 -43 l-139 -32 -25 29 c-29
34 -42 27 148 70 178 40 181 40 209 10z m138 -117 c46 -40 82 -74 79 -76 -2
-2 -86 -20 -187 -38 -101 -19 -194 -37 -205 -40 -18 -4 -33 9 -79 66 -31 39
-55 71 -53 73 4 3 339 84 352 85 5 1 46 -31 93 -70z m-558 -118 c28 -32 51
-61 51 -64 0 -2 -20 -10 -45 -16 l-46 -11 -69 56 c-39 31 -70 59 -70 63 0 7
74 26 112 30 9 0 39 -25 67 -58z m701 -5 c14 -18 13 -18 -238 -71 -139 -30
-176 -34 -188 -24 -8 6 -12 15 -8 18 5 6 373 87 405 90 9 0 22 -5 29 -13z
m459 -87 c46 -49 81 -92 78 -95 -3 -3 -23 -8 -45 -11 -39 -5 -44 -3 -142 83
l-102 89 44 11 c74 20 78 19 167 -77z m-303 -56 c52 -47 92 -88 90 -90 -3 -3
-469 -93 -482 -93 -8 0 -143 175 -137 177 5 2 103 23 218 47 116 24 212 45
213 45 2 1 46 -38 98 -86z m2541 -446 l561 -422 4 -365 3 -365 -50 -81 c-28
-44 -66 -118 -84 -165 -18 -46 -35 -86 -36 -87 -7 -7 -214 105 -295 159 -238
160 -463 412 -514 576 -83 264 -137 542 -219 1135 l-14 97 41 -30 c23 -16 294
-220 603 -452z m-3181 317 c37 -47 63 -89 58 -93 -5 -5 -30 -15 -56 -24 l-48
-16 -84 92 c-47 50 -83 93 -82 94 2 3 118 29 138 32 4 1 37 -38 74 -85z m6380
19 c-14 -65 -26 -225 -36 -473 -6 -146 -15 -303 -20 -350 -6 -47 -10 -93 -10
-102 0 -16 -4 -15 -43 2 -79 35 -176 52 -277 48 -87 -3 -102 -6 -180 -44 -215
-103 -376 -298 -460 -555 -16 -49 -32 -111 -36 -140 -5 -38 -12 -53 -28 -60
-24 -9 -222 -42 -365 -60 -88 -11 -95 -11 -108 6 -7 11 -13 32 -13 48 0 103
-75 262 -161 341 -93 87 -201 129 -364 142 -77 6 -92 4 -160 -21 -85 -31 -174
-85 -255 -155 l-55 -48 3 327 c2 179 5 327 7 329 3 3 2547 790 2558 791 5 1 6
-11 3 -26z m-5561 -53 c21 -22 37 -41 34 -43 -7 -6 -463 -138 -474 -137 -11 1
-90 99 -84 104 3 2 405 99 479 115 3 0 23 -17 45 -39z m529 -171 c-2 -4 -22
-10 -44 -14 -39 -7 -42 -5 -118 65 -42 40 -78 76 -80 80 -2 4 16 15 40 23 l43
15 82 -81 c45 -44 80 -84 77 -88z m-284 -70 c0 -5 -1 -9 -2 -9 -2 0 -122 -31
-268 -70 -145 -38 -267 -66 -271 -62 -41 50 -110 154 -105 159 3 3 113 36 243
73 l238 66 83 -74 c45 -41 82 -78 82 -83z m-779 -115 c28 -42 47 -79 42 -84
-9 -8 -104 -33 -108 -28 -42 51 -115 152 -112 154 2 2 21 10 43 18 71 26 79
23 135 -60z m854 36 c16 -16 27 -31 24 -33 -2 -2 -128 -36 -278 -76 l-275 -73
-17 24 c-9 12 -19 27 -21 33 -2 8 487 151 528 154 5 1 23 -12 39 -29z m484
-46 c22 -36 41 -69 41 -73 0 -7 -102 -41 -122 -41 -3 0 -33 31 -66 69 l-62 69
78 20 c42 11 80 20 83 21 4 1 25 -29 48 -65z m-345 -100 c32 -36 57 -66 55
-68 -2 -1 -105 -29 -229 -61 -124 -32 -261 -68 -305 -80 l-80 -22 -43 75 c-23
41 -41 76 -39 78 4 4 550 142 567 143 8 1 41 -29 74 -65z m134 -166 c23 -29
38 -54 34 -55 -22 -8 -637 -133 -651 -133 -15 0 -58 67 -49 75 2 2 600 160
619 164 4 0 25 -23 47 -51z m-935 -43 c26 -53 33 -77 25 -80 -28 -9 -92 -24
-94 -22 -46 53 -113 141 -110 144 7 7 99 31 121 32 16 1 29 -16 58 -74z m1417
-70 c22 -37 40 -70 40 -74 0 -7 -122 -34 -125 -28 -1 1 -25 37 -53 79 l-52 77
58 11 c31 6 62 13 67 14 15 5 22 -4 65 -79z m760 -105 c54 -215 80 -289 131
-364 69 -103 175 -222 263 -295 88 -72 87 -81 -11 -81 -253 0 -433 166 -500
463 -13 58 -14 80 -3 144 15 94 73 273 85 262 2 -3 18 -60 35 -129z m-1111 27
c23 -38 41 -71 38 -73 -7 -8 -691 -154 -706 -152 -12 3 -77 166 -69 173 2 1
154 34 338 72 238 49 338 66 346 59 6 -6 30 -42 53 -79z m4592 -67 c169 -52
303 -205 363 -414 31 -106 32 -155 6 -264 -60 -252 -233 -465 -491 -606 -206
-113 -465 -7 -584 239 -73 150 -88 244 -59 383 56 271 252 526 501 652 72 37
167 41 264 10z m-5518 -117 c15 -47 25 -88 23 -91 -6 -5 -138 -33 -141 -30 -5
6 -23 183 -20 187 6 5 67 19 91 20 17 1 25 -12 47 -86z m1044 -51 c66 -154
110 -325 128 -497 l6 -60 -163 -38 c-90 -21 -207 -49 -261 -62 l-98 -23 -27
55 -27 55 -70 -6 c-38 -3 -130 -6 -202 -7 -73 -1 -133 -4 -133 -8 0 -4 16 -45
36 -90 19 -46 34 -84 32 -86 -3 -3 -255 -65 -264 -65 -3 0 17 33 44 73 64 95
144 237 188 331 48 106 58 167 44 278 -7 49 -10 91 -8 93 6 6 688 153 713 154
16 1 28 -19 62 -97z m2775 -185 c135 -66 235 -190 294 -362 101 -294 -99 -684
-453 -882 -174 -97 -359 -70 -502 74 -69 70 -112 141 -152 253 -30 82 -32 230
-5 330 68 249 243 467 481 598 58 32 63 33 161 30 93 -3 107 -6 176 -41z
m-2062 -217 c13 -24 20 -21 -119 -50 -100 -21 -106 -21 -118 -4 -7 10 -13 23
-13 29 0 9 115 31 227 44 7 0 17 -8 23 -19z m278 -61 c45 -40 133 -89 160 -89
6 0 12 -3 12 -8 0 -4 -51 -18 -112 -30 -137 -28 -606 -130 -630 -138 -16 -5
-18 4 -18 88 l0 94 253 61 c138 34 260 62 270 62 11 1 40 -18 65 -40z m-648
-192 l0 -94 -78 -16 c-42 -9 -80 -17 -82 -17 -6 0 5 179 11 184 5 4 120 34
137 35 9 1 12 -24 12 -92z m1246 56 l57 -38 128 -258 c71 -142 129 -265 129
-273 0 -20 54 -138 81 -175 11 -16 20 -32 18 -33 -5 -4 -303 -56 -305 -53 -15
32 -364 827 -364 831 0 3 26 6 58 7 31 0 73 7 92 14 48 18 44 19 106 -22z
m-262 -145 c33 -79 110 -266 173 -417 63 -151 110 -277 106 -281 -10 -9 -263
-54 -269 -48 -5 6 -393 808 -391 809 2 0 301 74 317 78 3 0 32 -63 64 -141z
m-1194 75 c0 -32 -3 -75 -6 -95 l-6 -36 -177 -42 c-97 -23 -407 -98 -690 -166
-283 -68 -519 -124 -524 -124 -5 0 8 19 29 43 22 23 61 72 88 109 l49 67 336
82 c185 45 460 112 611 149 151 38 278 69 283 69 4 1 7 -25 7 -56z m-583 8
l11 -30 -112 -26 c-61 -14 -118 -28 -127 -31 -12 -3 -22 9 -37 45 l-20 50 61
5 c34 3 76 8 92 9 17 2 50 5 75 6 42 1 47 -1 57 -28z m4104 -136 c13 -73 53
-165 96 -222 36 -46 36 -46 -42 -57 l-40 -6 -80 196 c-44 108 -80 201 -80 207
0 6 27 16 60 22 l60 10 8 -45 c4 -25 12 -72 18 -105z m-150 -87 c46 -112 84
-205 84 -208 0 -4 -178 -41 -182 -37 0 1 -46 95 -101 209 l-100 206 87 12 c47
6 91 13 96 15 6 2 15 4 21 4 6 1 49 -90 95 -201z m-1675 155 l76 -38 -7 -35
c-3 -19 -8 -59 -12 -87 -3 -29 -9 -53 -12 -52 -8 0 -134 249 -127 249 3 0 40
-17 82 -37z m-775 -376 l196 -402 -111 -22 c-61 -12 -131 -23 -156 -25 l-44
-3 -167 395 c-92 217 -165 397 -163 399 4 4 223 60 239 60 6 0 98 -180 206
-402z m2181 170 c48 -100 88 -188 90 -196 2 -11 -34 -21 -162 -42 -91 -16
-168 -25 -173 -20 -4 4 10 44 32 87 48 94 96 231 106 302 4 29 10 52 13 52 4
0 46 -82 94 -183z m-2513 -238 c84 -220 151 -402 149 -404 -1 -1 -165 -31
-363 -64 -198 -34 -366 -64 -373 -66 -7 -3 -24 19 -41 53 l-29 57 70 80 c160
183 202 280 242 554 l22 154 69 18 c39 9 77 17 86 18 12 1 53 -97 168 -400z
m-389 344 c0 -5 -9 -66 -19 -138 -23 -155 -50 -244 -102 -345 -38 -73 -152
-230 -168 -230 -4 0 -25 36 -46 80 l-39 80 61 117 c65 127 100 216 127 330
l18 71 76 20 c92 24 92 24 92 15z m-1748 -53 c13 -23 14 -32 5 -35 -27 -9
-230 -55 -242 -55 -12 0 -55 79 -55 101 0 8 63 14 195 17 79 2 80 2 97 -28z
m1507 -72 c-26 -95 -78 -221 -124 -304 l-38 -67 -84 174 c-46 96 -85 178 -86
183 -2 8 295 83 335 85 15 1 15 -5 -3 -71z m-2178 -49 c16 -34 29 -62 27 -63
-2 -2 -28 -8 -58 -15 -30 -6 -81 -18 -112 -25 l-57 -14 -31 75 c-17 41 -34 81
-37 89 -4 12 15 14 116 14 l121 0 31 -61z m1878 -177 c50 -107 91 -200 91
-207 0 -23 -205 -285 -214 -273 -7 7 -247 620 -244 622 14 9 265 62 270 57 4
-3 47 -93 97 -199z m-305 -221 l133 -320 -47 -46 -47 -46 -189 -34 c-104 -19
-194 -35 -200 -35 -12 0 -350 687 -342 695 2 3 126 33 274 68 211 50 271 61
277 50 4 -7 68 -156 141 -332z m-2216 263 c18 -37 32 -68 30 -69 -2 -1 -48
-13 -103 -25 -55 -13 -105 -25 -111 -27 -9 -3 -43 67 -81 164 -5 13 36 18 162
21 l71 2 32 -66z m6648 -19 c38 -19 77 -35 87 -35 9 0 17 -4 17 -10 0 -5 -10
-10 -22 -10 -13 0 -295 -49 -628 -109 -333 -60 -605 -108 -606 -107 0 0 34 34
76 73 l77 72 439 80 c241 43 451 80 465 80 14 1 56 -15 95 -34z m804 -45 c7
-17 11 -32 9 -34 -7 -5 -263 -56 -281 -56 -10 0 -19 11 -23 30 -4 16 -7 33 -8
37 -2 8 273 62 284 56 4 -1 12 -16 19 -33z m-5825 -344 c103 -218 159 -348
152 -351 -33 -10 -310 -55 -314 -51 -7 7 -272 656 -275 674 -2 11 27 22 132
47 74 17 136 31 138 30 1 -1 76 -158 167 -349z m5237 246 l17 -28 -170 -41
-170 -40 -14 28 c-27 51 -25 53 133 80 192 34 185 34 204 1z m-5619 -316 c75
-184 137 -338 137 -344 0 -13 -159 -37 -170 -26 -5 5 -80 156 -168 335 l-159
326 91 21 c50 11 100 20 111 21 18 1 40 -45 158 -333z m-268 -58 c90 -183 162
-334 161 -336 -9 -9 -299 -53 -306 -46 -10 11 -270 639 -270 652 0 5 48 19
108 31 59 13 112 24 117 26 6 2 14 4 18 4 5 1 82 -149 172 -331z m5215 269 c0
-10 -53 -25 -171 -50 -95 -20 -176 -34 -180 -31 -5 3 -9 13 -9 22 0 15 25 22
148 44 173 30 212 33 212 15z m-5570 -342 c70 -181 127 -331 126 -332 -3 -3
-188 -34 -191 -31 -14 18 -326 641 -323 644 7 6 231 52 246 51 8 -1 67 -140
142 -332z m2064 218 l38 -78 -79 -76 c-73 -68 -85 -76 -137 -85 -57 -11 -57
-11 -72 18 -15 29 -14 31 23 74 92 108 173 209 173 216 0 25 20 -1 54 -69z
m2141 35 c85 -43 103 -58 65 -58 -12 0 -308 -49 -658 -109 -1788 -307 -2114
-362 -2122 -359 -5 2 35 39 90 83 l99 80 798 134 c439 74 976 164 1193 201
217 38 407 69 422 69 15 1 66 -18 113 -41z m-4495 -308 c88 -176 159 -320 158
-320 -2 -1 -70 -13 -152 -29 l-148 -28 -15 36 c-8 20 -69 164 -135 320 -65
156 -116 286 -113 290 7 6 196 48 227 50 14 1 57 -76 178 -319z m5235 269 c9
-17 15 -32 13 -34 -2 -1 -75 -19 -163 -39 -88 -20 -169 -39 -181 -42 -16 -4
-24 2 -39 35 -10 23 -16 43 -13 46 7 7 297 62 335 64 27 1 35 -4 48 -30z
m-694 -110 c6 -12 7 -25 2 -29 -4 -4 -71 -22 -148 -39 -76 -18 -143 -34 -147
-37 -4 -3 -16 13 -27 35 l-21 39 68 12 c37 6 101 17 142 24 106 19 118 19 131
-5z m-2113 -41 c6 -17 10 -33 9 -34 -6 -7 -137 -30 -136 -25 0 7 101 91 109
91 3 0 11 -14 18 -32z m1351 -94 c6 -15 9 -29 7 -32 -7 -6 -272 -52 -303 -52
-20 0 -34 20 -32 45 1 8 240 59 300 64 9 0 21 -11 28 -25z m-1747 -16 c-7 -7
-12 -8 -12 -2 0 14 12 26 19 19 2 -3 -1 -11 -7 -17z m543 -199 c9 -17 15 -32
13 -34 -10 -9 -334 -83 -339 -77 -10 12 -32 72 -27 77 3 3 285 58 330 64 4 1
15 -13 23 -30z m-979 -185 c8 -20 14 -37 12 -39 -2 -1 -73 -17 -158 -35 -85
-18 -160 -35 -166 -37 -10 -4 -50 84 -42 92 5 6 277 53 311 54 23 1 31 -5 43
-35z m-654 -99 c6 -14 9 -27 7 -28 -2 -2 -68 -20 -147 -41 -79 -20 -149 -39
-156 -42 -8 -3 -19 12 -29 36 -12 30 -13 42 -4 45 16 6 278 53 300 54 10 1 23
-10 29 -24z m-638 -141 l24 -51 -155 -42 c-86 -23 -157 -41 -158 -39 -11 11
-54 122 -50 127 6 6 296 60 308 57 4 0 18 -24 31 -52z"/>
<path d="M6847 6004 c-3 -130 -8 -238 -10 -241 -2 -2 -80 7 -172 19 l-167 23
4 129 c2 90 0 130 -8 133 -8 3 -14 -36 -19 -126 -7 -127 -8 -131 -29 -126 -19
4 -302 45 -312 45 -2 0 -4 50 -4 110 0 91 -3 110 -15 110 -12 0 -15 -19 -15
-108 l0 -108 -42 3 -43 2 43 -11 42 -11 0 -138 c0 -77 -1 -139 -3 -139 -1 0
-40 16 -86 35 -66 28 -86 33 -93 23 -4 -7 -8 -15 -8 -18 0 -3 42 -21 93 -41
l92 -36 8 -122 c5 -68 7 -125 4 -127 -2 -3 -80 23 -172 58 l-168 62 7 130 c7
160 10 436 3 442 -8 8 -16 -108 -23 -333 -4 -123 -10 -223 -14 -223 -4 0 -32
11 -63 25 -45 19 -57 22 -66 11 -8 -10 5 -19 59 -41 69 -28 70 -29 70 -66 0
-23 5 -39 15 -43 12 -4 15 3 15 30 0 30 3 35 18 29 38 -15 259 -93 287 -102
24 -8 31 -16 33 -41 4 -38 22 -43 22 -7 0 14 4 25 8 25 4 0 72 -20 150 -46
l143 -45 -2 -62 c-3 -57 -1 -62 19 -65 20 -3 22 1 22 53 0 42 3 56 13 52 101
-40 118 -46 115 -36 -2 6 -32 23 -66 37 l-62 26 6 110 c4 61 7 112 8 112 0 1
43 -14 94 -34 l92 -35 0 -237 c0 -209 2 -239 16 -244 15 -6 16 16 13 229 -2
129 -1 235 2 235 3 0 57 -20 120 -45 126 -50 129 -50 129 -32 0 6 -58 35 -128
63 -122 50 -127 53 -130 83 -4 37 -22 42 -22 5 0 -17 -4 -24 -12 -21 -7 3 -50
20 -95 38 l-83 32 5 101 c3 56 8 139 11 185 l6 83 26 -5 c15 -3 91 -16 170
-28 l142 -23 0 -37 c0 -20 7 -42 15 -49 13 -11 15 -6 15 32 l0 45 41 -7 c31
-6 42 -4 46 7 8 19 1 24 -47 30 l-42 6 7 231 c4 127 8 235 9 240 0 6 -6 11
-15 13 -14 3 -17 -24 -22 -233z m-539 -191 l155 -27 -7 -175 c-4 -97 -9 -177
-10 -179 -2 -2 -73 26 -157 61 l-154 64 -3 141 c-2 105 1 142 9 142 7 0 82
-12 167 -27z m-10 -358 l142 -57 0 -62 c0 -33 -3 -84 -6 -112 l-7 -52 -148 52
-149 51 0 124 c0 94 3 122 13 118 6 -3 76 -30 155 -62z"/>
<path d="M12128 2701 c-65 -26 -160 -96 -239 -178 -57 -58 -72 -82 -107 -168
-110 -272 -110 -452 0 -637 57 -96 187 -163 319 -163 67 0 83 4 150 37 49 25
104 65 163 120 75 69 95 95 123 155 65 142 95 249 100 363 6 126 -10 201 -65
305 -31 56 -49 77 -95 108 -113 76 -246 98 -349 58z m278 -82 c52 -25 77 -46
102 -82 116 -163 110 -404 -17 -656 -40 -79 -147 -183 -231 -224 -59 -29 -72
-32 -160 -32 -163 1 -239 45 -304 177 -82 162 -70 340 39 575 53 115 151 208
272 259 50 21 70 24 144 21 75 -3 96 -8 155 -38z"/>
<path d="M12169 2371 c-72 -23 -151 -89 -184 -155 -49 -99 -19 -261 55 -298
40 -20 120 -24 153 -7 61 32 128 94 152 142 49 100 20 263 -55 299 -46 21 -89
28 -121 19z m64 -37 c63 -21 81 -55 74 -138 -7 -82 -33 -163 -62 -192 -23 -23
-64 -37 -142 -48 l-41 -6 -16 47 c-26 77 -16 213 21 286 16 32 68 67 99 67 11
0 42 -7 67 -16z"/>
<path d="M7510 2501 c-179 -41 -326 -76 -328 -77 -5 -3 -33 -266 -29 -271 6
-5 733 102 779 115 l27 7 -55 145 c-30 80 -58 147 -62 150 -4 4 -153 -28 -332
-69z m349 -78 c17 -54 27 -100 23 -104 -4 -3 -151 -27 -327 -53 -176 -26 -328
-50 -337 -52 -14 -4 -16 1 -13 28 3 18 7 58 10 89 l6 56 287 65 c158 36 295
66 304 67 13 1 24 -22 47 -96z"/>
<path d="M10422 2390 c-80 -17 -162 -70 -268 -175 -100 -99 -102 -101 -142
-205 -104 -273 -102 -431 5 -616 27 -46 49 -69 88 -93 88 -54 152 -74 230 -74
119 0 205 46 339 181 61 62 85 95 108 148 120 278 128 450 31 644 -31 61 -48
81 -92 112 -95 66 -209 96 -299 78z m174 -77 c64 -21 117 -55 142 -90 122
-174 123 -389 2 -639 -40 -83 -60 -111 -116 -164 -147 -137 -303 -165 -469
-84 -58 29 -100 83 -143 185 -24 58 -27 75 -26 184 1 101 5 132 27 195 75 220
174 344 324 406 72 29 185 32 259 7z"/>
<path d="M10372 2031 c-23 -11 -67 -45 -97 -74 -91 -92 -104 -184 -45 -315 22
-49 64 -72 130 -72 81 0 191 82 230 172 27 64 24 147 -9 220 -35 78 -126 107
-209 69z m109 -28 c70 -28 83 -84 49 -219 -15 -60 -27 -86 -49 -106 -33 -30
-87 -48 -144 -48 -34 0 -40 4 -53 35 -27 66 -12 240 26 301 33 53 98 67 171
37z"/>
<path d="M8305 1266 c-66 -18 -133 -36 -148 -40 l-28 -7 57 -107 c31 -59 60
-112 65 -118 6 -7 52 -1 151 19 79 16 144 30 146 32 3 3 -116 255 -120 254 -2
-1 -57 -16 -123 -33z m123 -118 l42 -63 -64 -22 c-36 -11 -73 -24 -84 -27 -15
-5 -28 8 -66 65 -26 39 -46 72 -44 74 6 7 122 33 149 34 22 1 34 -10 67 -61z"/>
<path d="M6978 1431 c-76 -21 -141 -40 -144 -44 -6 -5 212 -538 235 -575 5 -9
41 -5 149 17 79 15 144 30 146 32 6 6 -237 609 -243 608 -3 -1 -68 -18 -143
-38z m206 -289 l104 -241 -80 -27 c-44 -14 -83 -22 -88 -18 -10 11 -221 487
-217 491 4 3 171 40 175 37 1 0 49 -110 106 -242z"/>
</g>
</svg>
