<?xml version="1.0" standalone="no"?>
<!DOCTYPE svg PUBLIC "-//W3C//DTD SVG 20010904//EN"
 "http://www.w3.org/TR/2001/REC-SVG-20010904/DTD/svg10.dtd">
<svg version="1.0" xmlns="http://www.w3.org/2000/svg"
 width="621.000000pt" height="852.000000pt" viewBox="0 0 621.000000 852.000000"
 preserveAspectRatio="xMidYMid meet">

<g transform="translate(0.000000,852.000000) scale(0.100000,-0.100000)"
fill="#444" stroke="none">
<path d="M2740 8464 c-86 -11 -316 -58 -435 -90 -552 -149 -1013 -423 -1423
-849 -128 -132 -275 -313 -328 -401 -11 -17 -36 -56 -56 -87 -21 -31 -58 -96
-84 -144 -26 -49 -50 -92 -54 -98 -5 -5 -29 -57 -55 -115 -136 -301 -229 -634
-245 -880 -5 -74 -12 -792 -16 -1595 l-6 -1460 27 -140 c127 -677 387 -1176
855 -1646 247 -247 486 -421 785 -571 308 -155 592 -244 940 -294 158 -23 212
-26 440 -26 216 -1 286 3 415 22 966 139 1795 709 2277 1565 90 160 207 433
256 595 61 201 88 341 97 505 5 88 12 813 15 1610 l7 1450 -22 110 c-86 444
-231 811 -464 1169 -207 319 -552 665 -880 883 -123 81 -318 189 -423 233 -43
17 -89 38 -103 45 -54 27 -308 107 -443 140 -272 65 -290 67 -682 70 -198 2
-376 1 -395 -1z m760 -148 c47 -8 99 -17 115 -19 265 -41 609 -168 918 -339
424 -234 788 -581 1057 -1008 182 -289 300 -582 390 -975 l32 -140 -6 -1495
c-3 -835 -10 -1547 -16 -1614 -5 -65 -21 -166 -36 -225 -14 -58 -27 -113 -29
-121 -18 -80 -78 -242 -136 -369 -16 -35 -39 -87 -51 -114 -56 -130 -201 -367
-327 -536 -106 -143 -399 -439 -537 -543 -253 -191 -457 -307 -734 -418 -657
-262 -1435 -263 -2100 -3 -122 48 -440 202 -460 223 -3 3 -58 40 -122 83 -205
135 -312 227 -518 444 -189 198 -329 396 -461 648 -112 216 -190 435 -262 738
l-31 132 -3 755 c-5 1024 12 2398 31 2505 29 162 90 381 146 515 12 30 30 73
38 95 36 90 189 376 254 473 100 151 156 222 275 351 515 558 1098 863 1843
967 126 17 609 11 730 -10z"/>
<path d="M3784 8100 c-55 -8 -81 -20 -131 -58 -45 -33 -72 -81 -98 -170 l-22
-76 -54 5 c-30 2 -205 4 -389 4 -315 0 -455 -10 -496 -34 -7 -4 -7 -20 -2 -48
11 -51 0 -49 190 -28 73 8 185 16 248 17 97 3 115 1 115 -12 0 -12 -27 -16
-155 -22 -189 -8 -225 -13 -261 -39 -56 -40 -63 -140 -12 -199 40 -48 73 -56
263 -64 184 -7 220 -16 220 -56 0 -52 -133 -65 -289 -29 l-90 21 -31 -23 c-16
-13 -38 -34 -47 -48 -16 -25 -15 -26 38 -74 71 -64 200 -167 209 -167 16 0 80
75 80 95 0 19 9 24 63 35 112 23 162 52 194 114 22 42 20 136 -4 183 -33 64
-55 70 -258 78 -183 7 -215 10 -215 24 0 15 71 21 235 21 88 0 170 3 183 6 20
6 22 12 22 80 0 53 4 74 13 74 31 -1 198 -28 203 -32 3 -3 -15 -91 -39 -194
-68 -287 -81 -354 -71 -364 6 -6 31 -13 58 -16 55 -8 58 -5 80 71 20 66 105
391 110 418 10 51 17 58 50 51 17 -3 32 -8 34 -9 2 -2 -10 -55 -27 -119 -17
-63 -31 -130 -31 -149 0 -46 36 -97 90 -127 61 -34 183 -36 227 -4 34 25 89
130 122 236 10 29 16 35 29 30 36 -14 269 -147 324 -184 31 -21 62 -38 67 -38
6 0 11 -4 11 -8 0 -4 15 -16 33 -27 50 -30 70 -52 63 -71 -6 -14 -10 -13 -39
8 -17 13 -86 58 -151 98 -116 72 -121 74 -182 74 -81 -1 -126 -31 -142 -96
-23 -89 18 -171 167 -335 114 -126 115 -129 50 -166 -27 -16 -43 -18 -74 -13
-64 12 -102 62 -164 214 -30 73 -60 132 -67 132 -22 0 -114 -33 -114 -41 0
-16 64 -187 94 -254 41 -88 75 -128 140 -165 44 -26 62 -30 125 -30 102 0 144
21 230 115 30 32 40 110 20 147 -8 15 -71 87 -140 161 -122 130 -151 170 -132
187 4 5 69 -30 143 -77 74 -46 142 -87 150 -91 8 -3 32 -18 54 -34 46 -33 56
-29 116 39 l41 48 100 -105 c55 -57 121 -134 147 -170 42 -58 47 -71 46 -115
-1 -54 -32 -144 -67 -196 -30 -44 -69 -58 -105 -38 -26 14 -27 19 -27 89 0 41
2 95 5 120 l5 45 -40 -3 c-78 -5 -170 -47 -221 -100 -66 -69 -81 -179 -40
-295 30 -83 96 -187 147 -230 l38 -33 -51 -18 c-50 -17 -50 -18 -43 -53 8 -43
25 -83 36 -83 10 0 356 95 533 145 66 19 121 33 124 31 10 -11 25 -137 17
-145 -6 -6 -138 -42 -295 -80 -157 -39 -299 -78 -316 -85 l-31 -14 10 -52 c5
-29 16 -54 23 -57 7 -2 151 27 320 66 169 39 308 70 310 68 2 -1 4 -23 6 -47
3 -45 3 -45 43 -48 68 -4 69 -3 56 154 -33 399 -159 729 -399 1048 -99 131
-283 314 -412 409 -58 42 -109 80 -115 85 -35 28 -250 150 -330 187 -120 56
-306 123 -447 161 -101 27 -108 31 -108 55 0 39 48 126 83 151 50 36 134 32
219 -10 97 -48 164 -106 268 -236 l92 -115 54 27 c30 14 54 30 54 34 0 23 -50
101 -112 178 -134 165 -272 258 -415 279 -39 6 -75 10 -80 10 -4 -1 -31 -5
-59 -9z m142 -521 c27 -11 50 -21 51 -23 5 -5 -33 -110 -56 -153 -26 -52 -35
-58 -72 -43 -28 12 -33 20 -30 50 2 19 53 190 57 190 1 0 24 -9 50 -21z m1336
-1213 c26 -66 48 -121 48 -122 0 -5 -120 -48 -241 -85 l-136 -42 -60 44 c-134
98 -212 233 -187 327 10 34 17 27 37 -35 10 -31 27 -69 39 -86 41 -57 148 -83
229 -55 78 26 129 88 164 197 l18 55 20 -40 c11 -21 42 -93 69 -158z"/>
<path d="M2220 7676 c-298 -103 -625 -297 -848 -505 -156 -145 -134 -135 -355
-161 -188 -22 -239 -29 -244 -33 -1 -2 -11 -42 -22 -91 -19 -86 -19 -88 0
-107 20 -20 62 -34 82 -26 6 2 20 27 30 54 l18 50 87 7 c48 4 98 10 111 13
l25 6 -22 -30 c-37 -52 -143 -245 -187 -339 -40 -86 -89 -220 -99 -274 -3 -14
-12 -52 -20 -85 -23 -98 -51 -339 -40 -356 6 -11 75 -12 90 -1 6 4 16 54 23
112 10 88 20 147 46 280 2 8 4 18 4 22 1 7 66 -9 92 -23 15 -7 13 -17 -12 -89
-53 -150 -35 -302 47 -399 49 -56 81 -71 157 -71 53 0 75 6 127 32 93 48 142
124 165 253 7 42 15 78 17 80 2 2 39 -7 81 -20 l77 -24 16 32 c9 17 20 44 25
59 7 25 4 30 -21 43 -40 20 -262 109 -327 130 l-53 17 0 84 c0 90 10 127 42
162 28 29 88 30 134 2 33 -21 74 -90 74 -126 0 -39 14 -47 69 -39 67 9 74 24
51 99 -24 75 -80 156 -131 190 -115 77 -295 42 -347 -66 -22 -44 -42 -146 -42
-209 l0 -36 -62 22 c-91 32 -118 46 -118 62 0 7 14 40 30 73 17 33 30 66 30
75 0 8 4 15 9 15 5 0 13 10 17 23 3 12 12 29 19 37 6 8 27 44 46 79 19 36 41
72 49 81 8 9 26 30 38 47 l24 31 126 -78 c188 -115 306 -188 317 -197 46 -37
145 -92 156 -88 15 6 53 58 64 86 7 19 -82 85 -379 279 l-189 124 89 86 c182
173 343 289 546 391 65 32 120 59 122 59 5 0 48 -72 44 -75 -2 -1 -23 -9 -46
-19 -24 -9 -59 -29 -78 -44 -32 -26 -74 -103 -74 -137 0 -14 -9 -15 -69 -9
-90 8 -131 -6 -176 -60 -48 -59 -66 -107 -66 -179 -1 -76 23 -137 77 -191 68
-67 132 -83 322 -78 l62 2 0 48 c0 73 -10 80 -120 88 -105 7 -138 20 -169 63
-46 64 -6 171 65 171 26 0 84 -48 84 -70 0 -29 15 -32 77 -15 l58 16 0 97 c0
53 2 104 5 112 16 47 114 95 144 71 8 -7 58 -82 111 -167 53 -85 101 -154 107
-154 18 0 98 50 98 61 0 12 -154 270 -245 409 -30 47 -59 93 -65 102 -9 14 -2
20 49 38 l59 22 -14 47 c-7 25 -14 47 -14 49 0 4 -16 0 -80 -22z m-965 -1583
c38 -15 74 -32 78 -38 13 -16 1 -181 -14 -200 -72 -90 -105 -103 -167 -65 -46
28 -66 80 -58 152 8 82 51 178 78 178 7 0 44 -12 83 -27z"/>
<path d="M3100 6823 c-50 -105 -88 -193 -247 -573 -208 -497 -323 -780 -323
-796 0 -11 107 -13 573 -13 314 1 581 4 593 7 19 7 7 39 -198 542 -327 802
-360 880 -368 880 -4 0 -18 -21 -30 -47z"/>
<path d="M2621 5341 l-45 -6 159 -130 c197 -161 336 -269 362 -284 26 -13 49
2 228 148 71 59 175 143 229 187 l100 79 -145 6 c-182 8 -829 8 -888 0z"/>
<path d="M2435 5248 c-7 -18 -25 -58 -38 -88 -13 -30 -36 -86 -51 -125 -16
-38 -35 -83 -44 -100 -9 -16 -15 -31 -14 -32 1 -2 -9 -28 -23 -59 -14 -31 -25
-58 -25 -61 0 -2 -9 -23 -19 -46 -10 -23 -63 -148 -116 -277 -54 -129 -106
-254 -117 -277 -11 -24 -21 -49 -22 -55 -1 -7 -7 -22 -13 -33 -19 -35 -63
-148 -63 -162 0 -16 35 10 295 216 133 106 533 431 578 471 8 7 -261 615 -286
648 -15 20 -26 14 -42 -20z"/>
<path d="M3773 5258 c-11 -14 -62 -112 -65 -125 -1 -5 -29 -66 -63 -138 -34
-71 -88 -187 -120 -257 l-58 -127 29 -24 c728 -605 844 -698 844 -672 0 10
-542 1340 -550 1348 -4 4 -12 2 -17 -5z"/>
<path d="M3605 5184 c-59 -44 -86 -65 -169 -133 -50 -40 -126 -103 -168 -140
l-77 -66 37 -39 c20 -21 66 -58 102 -82 60 -41 66 -43 78 -27 30 39 232 469
232 494 0 13 -12 11 -35 -7z"/>
<path d="M2623 5168 c34 -89 214 -461 224 -465 12 -5 73 37 153 105 l35 30
-20 22 c-20 23 -213 189 -318 273 -57 46 -84 59 -74 35z"/>
<path d="M3049 4737 c-30 -23 -79 -63 -109 -89 l-53 -46 63 -144 c91 -209 162
-358 171 -358 8 0 70 104 73 123 1 7 21 50 45 96 23 45 58 119 77 164 30 69
33 85 24 106 -11 25 -209 191 -226 191 -5 0 -34 -20 -65 -43z"/>
<path d="M2640 4408 c-91 -72 -270 -217 -399 -322 -129 -105 -262 -213 -295
-240 -34 -27 -80 -67 -103 -89 l-42 -40 42 -66 c23 -36 140 -209 262 -384 121
-175 227 -328 235 -340 8 -12 109 -159 224 -327 115 -168 252 -368 304 -445
126 -186 173 -248 183 -238 5 5 11 472 15 1038 l6 1030 -70 150 c-106 227
-191 405 -194 405 -2 0 -77 -59 -168 -132z"/>
<path d="M3365 4390 c-36 -73 -95 -193 -129 -269 l-64 -137 -12 -1027 c-6
-564 -9 -1031 -5 -1037 4 -6 35 27 69 73 137 181 1044 1472 1150 1637 l48 74
-61 57 c-98 91 -875 727 -918 753 -9 5 -33 -35 -78 -124z"/>
<path d="M1249 2580 c-84 -6 -214 -69 -293 -141 -109 -99 -159 -254 -121 -369
55 -166 178 -270 320 -270 70 0 155 18 161 35 3 7 -14 43 -37 81 l-43 69 -60
0 c-106 1 -166 55 -166 150 0 68 35 124 115 180 129 93 231 106 304 40 59 -54
68 -114 30 -202 -7 -18 -17 -33 -21 -33 -11 0 45 -108 71 -138 l20 -23 29 21
c41 30 90 117 104 182 27 129 -61 309 -187 383 -48 28 -136 42 -226 35z"/>
<path d="M4850 2548 c-117 -58 -199 -241 -164 -365 15 -52 68 -113 99 -113 16
0 42 35 74 99 l22 43 -20 22 c-26 28 -27 62 -1 104 24 40 47 50 66 30 13 -13
13 -23 -4 -84 -11 -38 -20 -73 -21 -79 -1 -5 -6 -28 -12 -49 -24 -88 18 -173
104 -215 141 -68 277 49 277 239 0 37 2 40 29 40 27 0 32 6 60 74 17 41 31 79
31 84 0 5 -19 12 -42 16 -24 4 -116 41 -206 82 -194 90 -236 100 -292 72z
m250 -264 c61 -37 73 -107 25 -158 -25 -27 -53 -26 -79 3 -13 15 -14 24 -1 86
8 39 15 73 15 77 0 12 9 10 40 -8z"/>
<path d="M4346 2189 c-31 -33 -56 -66 -56 -74 0 -12 21 -32 91 -89 l23 -19 58
64 c32 35 58 69 58 75 0 6 -27 32 -59 57 l-59 47 -56 -61z"/>
<path d="M4504 2055 c-30 -31 -54 -62 -54 -68 0 -27 425 -377 457 -377 20 0
92 79 100 109 5 19 -1 30 -25 50 -97 83 -362 300 -390 320 l-34 24 -54 -58z"/>
<path d="M4212 2023 c-30 -20 -56 -42 -59 -50 -5 -13 38 -88 90 -156 16 -21
28 -39 26 -41 -2 -2 -29 -11 -59 -21 -136 -44 -195 -143 -169 -282 22 -115
108 -237 204 -285 51 -26 147 -32 204 -13 62 20 127 87 137 140 5 26 10 33 17
26 6 -6 17 -11 25 -11 18 0 132 78 132 91 0 24 -463 632 -484 636 -6 1 -35
-14 -64 -34z m157 -407 c59 -31 121 -124 121 -181 0 -33 -57 -93 -90 -96 -44
-2 -50 0 -96 43 -52 48 -84 104 -84 145 1 79 78 125 149 89z"/>
<path d="M1523 1850 c-112 -56 -186 -164 -198 -288 -6 -58 -4 -76 14 -117 44
-101 124 -172 224 -202 204 -60 442 175 397 392 -8 38 -24 71 -53 107 -48 62
-56 69 -122 108 -44 26 -60 30 -126 30 -64 0 -85 -5 -136 -30z m210 -159 c21
-12 42 -32 48 -43 11 -21 4 -108 -9 -108 -4 0 -16 -15 -25 -32 -30 -54 -93
-98 -139 -98 -52 0 -108 51 -108 99 0 87 108 212 179 206 9 0 34 -11 54 -24z"/>
<path d="M2705 1591 c-4 -7 -69 -443 -99 -666 -2 -22 -8 -59 -12 -81 -7 -48
-7 -48 93 -59 35 -4 66 -8 69 -8 4 -1 9 7 10 18 8 47 94 675 99 725 l6 56 -70
12 c-86 14 -88 15 -96 3z"/>
<path d="M3133 1573 c-15 -3 -23 -12 -23 -25 0 -34 70 -720 76 -752 l6 -29 85
6 c46 2 87 7 89 10 5 5 -64 760 -71 785 -4 12 -109 15 -162 5z"/>
<path d="M2185 1521 c-45 -11 -69 -27 -104 -66 -46 -53 -42 -67 33 -99 66 -28
93 -28 116 -1 7 8 25 15 40 15 36 0 95 -41 95 -65 0 -22 18 -21 -215 -13 -88
2 -110 0 -133 -15 -77 -50 -109 -176 -65 -252 13 -22 44 -52 73 -70 45 -28 55
-30 131 -28 l82 3 10 -29 c8 -23 22 -32 73 -50 91 -30 95 -29 102 27 3 26 33
124 66 219 78 221 79 255 5 327 -75 73 -223 119 -309 97z m117 -379 c15 -15
-48 -89 -81 -97 -35 -8 -77 10 -98 41 -12 18 -11 24 9 49 21 27 24 27 91 22
39 -3 74 -10 79 -15z"/>
<path d="M3671 1480 c-24 -11 -59 -36 -77 -55 -24 -26 -33 -31 -38 -20 -3 8
-14 15 -25 15 -24 0 -129 -38 -135 -49 -9 -14 142 -498 170 -545 11 -19 14
-19 76 -2 35 9 69 21 77 25 10 7 3 44 -38 184 -28 96 -51 189 -51 205 0 44 36
82 85 89 31 4 44 1 56 -14 9 -10 47 -102 84 -206 l68 -187 36 6 c20 3 55 16
79 27 52 25 53 15 -14 227 -51 162 -108 290 -129 290 -7 0 -15 5 -17 12 -3 7
-36 13 -84 15 -64 3 -87 0 -123 -17z"/>
</g>
</svg>
